<svg width="25" height="25" viewBox="0 0 25 25" fill="none" xmlns="http://www.w3.org/2000/svg">
<path d="M20.8333 20.8334L16.6146 16.6146M16.6146 16.6146C17.2917 15.9375 17.8288 15.1336 18.1953 14.2489C18.5618 13.3642 18.7504 12.416 18.7504 11.4584C18.7504 10.5008 18.5618 9.55253 18.1953 8.66782C17.8288 7.78311 17.2917 6.97924 16.6146 6.30211C15.9375 5.62498 15.1336 5.08785 14.2489 4.72139C13.3642 4.35493 12.4159 4.16632 11.4583 4.16632C10.5007 4.16632 9.5525 4.35493 8.66779 4.72139C7.78308 5.08785 6.97921 5.62498 6.30208 6.30211C4.93456 7.66963 4.16629 9.52439 4.16629 11.4584C4.16629 13.3923 4.93456 15.2471 6.30208 16.6146C7.6696 17.9821 9.52436 18.7504 11.4583 18.7504C13.3923 18.7504 15.2471 17.9821 16.6146 16.6146Z" stroke="#61656F" stroke-width="2" stroke-linecap="round" stroke-linejoin="round"/>
</svg>
