<svg width="31" height="31" viewBox="0 0 31 31" fill="none" xmlns="http://www.w3.org/2000/svg">
<path d="M15.5 25.5104C15.3727 25.511 15.2466 25.4862 15.129 25.4374C15.0115 25.3886 14.9049 25.3168 14.8154 25.2262L7.06542 17.4762C6.8943 17.2926 6.80114 17.0497 6.80557 16.7987C6.81 16.5478 6.91167 16.3083 7.08916 16.1308C7.26665 15.9533 7.50611 15.8517 7.75708 15.8472C8.00805 15.8428 8.25095 15.936 8.43459 16.1071L15.5 23.1725L22.5654 16.1071C22.7491 15.936 22.992 15.8428 23.2429 15.8472C23.4939 15.8517 23.7334 15.9533 23.9108 16.1308C24.0883 16.3083 24.19 16.5478 24.1944 16.7987C24.1989 17.0497 24.1057 17.2926 23.9346 17.4762L16.1846 25.2262C16.0951 25.3168 15.9885 25.3886 15.871 25.4374C15.7534 25.4862 15.6273 25.511 15.5 25.5104Z" fill="#61656F"/>
<path d="M15.5 25.5104C15.2441 25.5071 14.9996 25.4039 14.8187 25.223C14.6377 25.042 14.5346 24.7976 14.5312 24.5417V6.45834C14.5312 6.20142 14.6333 5.95501 14.815 5.77333C14.9967 5.59166 15.2431 5.48959 15.5 5.48959C15.7569 5.48959 16.0033 5.59166 16.185 5.77333C16.3667 5.95501 16.4688 6.20142 16.4688 6.45834V24.5417C16.4654 24.7976 16.3623 25.042 16.1813 25.223C16.0004 25.4039 15.7559 25.5071 15.5 25.5104Z" fill="#61656F"/>
</svg>
