<svg width="63" height="57" viewBox="0 0 63 57" fill="none" xmlns="http://www.w3.org/2000/svg">
<path d="M49.6112 32.5747C49.6143 32.6996 49.7177 32.7981 49.8456 32.7988C50.5498 32.8058 51.3707 32.9958 51.6012 33.7162C51.7133 34.0667 51.531 34.9957 51.9651 34.8297C54.8961 33.7108 52.2185 29.808 55.4431 28.8325C55.8891 28.6976 56.4014 28.8309 56.7732 28.6572C56.9879 28.5572 57.0637 28.1765 57.2863 28.0051C58.9819 26.7039 61.7605 27.4351 62.6052 29.3877C63.8421 32.2491 61.9539 35.4501 59.9647 37.5042C59.566 37.916 57.9754 39.0535 57.7347 39.4637C57.715 39.4979 57.7063 39.5374 57.7071 39.5769C57.7339 40.9774 57.6715 42.3825 57.7 43.7829C57.7497 46.2659 58.2723 49.6925 58.0907 52.0817C57.8957 54.6522 55.005 55.993 52.7482 54.7197C50.5277 53.4666 51.4741 50.8774 51.5049 48.9466C51.5381 46.8498 51.5428 44.7274 51.4157 42.6361C51.407 42.4972 51.276 42.3957 51.1371 42.422C49.7217 42.6903 49.5346 44.3924 48.825 45.5835C47.2052 48.3045 44.687 50.8123 41.8263 52.3158C41.5035 52.4857 41.2943 52.816 41.2966 53.1758C41.3109 54.8174 39.8915 56.6335 38.237 56.7847C35.0227 57.0786 28.4598 57.0654 25.2344 56.7831C24.0392 56.6784 22.2087 55.7456 21.8424 54.5747C21.6766 54.0443 21.8748 53.2805 21.5874 52.8416C21.4895 52.6919 19.7316 51.7978 19.3306 51.504C17.1969 49.9391 15.0908 47.5826 13.8239 45.2826C13.5089 44.7103 12.834 42.8043 12.6327 42.5779C12.4638 42.3879 12.1717 42.4042 11.9262 42.3336C11.7888 42.2941 11.6475 42.384 11.6262 42.5228C11.5536 42.9935 11.5655 43.5084 11.5899 43.9675C11.7328 46.5861 12.1235 49.273 12.1772 51.8886C12.2475 55.2904 6.58526 56.8483 5.25121 52.9804C5.24489 52.9618 5.24095 52.9424 5.23937 52.923C4.91414 49.1994 5.07833 45.1554 5.19121 41.3698C5.20621 40.8642 5.4375 40.3834 5.40514 39.8716C5.4004 39.801 5.36409 39.7375 5.30568 39.6964C3.26434 38.282 1.06276 35.7982 0.300219 33.4533C-0.715712 30.3306 0.874887 26.9358 4.64496 27.7213C5.51644 27.9027 5.87955 28.5983 6.27109 28.7092C6.70209 28.8317 7.22781 28.6844 7.69986 28.7844C9.11206 29.0822 9.73962 32.4212 9.47439 33.7767C9.45702 33.8659 9.49649 33.9574 9.57227 34.0093L10.6419 34.7475C10.7966 34.8538 11.0074 34.7467 11.0113 34.5614C11.0326 33.5518 11.5339 33.0315 12.6737 33.14C12.8056 33.1524 12.9192 33.0516 12.9271 32.9221C13.1671 28.8674 14.3259 24.9576 17.0501 21.8256C17.6847 21.0967 19.0788 19.7459 19.895 19.2651C20.5107 18.9022 21.458 18.7324 21.8605 18.4253C22.5236 17.919 23.4685 16.3929 24.2958 15.6477C28.5111 11.8519 34.8695 11.8442 38.8851 15.9307C39.3721 16.4263 40.2555 18.0795 40.471 18.2485C40.7425 18.4618 41.2524 18.4385 41.5958 18.6215C46.9162 21.4596 49.4549 26.7489 49.6088 32.5724L49.6112 32.5747ZM49.4059 35.2934C49.417 35.1523 49.297 35.0344 49.1533 35.0445C46.6179 35.2244 47.5201 32.9749 47.3543 31.2387C46.9478 26.9738 44.8086 22.8787 40.9659 20.7175C40.4583 20.4322 39.8505 20.3926 39.3563 20.0817C38.5433 19.5707 38.3112 18.6432 37.7547 17.9632C34.5546 14.0557 28.9902 14.0131 25.4514 17.5165C24.5429 18.4168 23.9998 19.8894 22.9341 20.398C21.0001 21.3208 20.4144 21.2611 18.8427 23.0276C16.0973 26.1146 15.0798 30.2306 15.135 34.2706C15.135 34.311 15.1263 34.3513 15.1058 34.3869C14.7743 34.953 14.1901 35.2229 13.55 35.2174C13.4126 35.2159 13.3037 35.333 13.3155 35.4679C13.8697 41.621 16.1533 46.9614 21.589 50.399C22.0847 50.7122 23.2522 51.0961 23.5435 51.4342C24.2105 52.2073 23.3651 54.3599 25.0457 54.5724C26.907 54.8073 29.5452 54.7662 31.4618 54.7554C31.9054 54.753 32.6435 54.7755 33.0887 54.7654C34.1804 54.7406 37.6347 54.7709 38.3207 54.4685C39.5474 53.9272 39.1835 52.0956 39.5671 51.4791C39.6603 51.3295 41.7261 50.0423 42.2597 49.6607C47.1602 46.1612 48.9513 41.0317 49.4059 35.2942V35.2934ZM60.2852 29.7266C60.0713 29.5753 59.4074 29.4459 59.068 29.4854C59.0064 29.4924 58.9495 29.5242 58.9109 29.5722C58.0315 30.692 57.9683 32.1506 56.212 31.493C56.0951 31.4488 55.961 31.4992 55.9112 31.6116C55.4723 32.6143 55.8425 33.558 55.2995 34.5917C54.5622 35.996 52.8982 36.7117 51.5152 37.3693C51.4489 37.4011 51.4015 37.4616 51.3873 37.5321L51.01 39.4273C50.9752 39.6002 51.1418 39.7452 51.3123 39.6917C54.4706 38.6945 58.0591 37.0591 59.8147 34.221C60.4273 33.2315 61.4227 30.5291 60.2852 29.725V29.7266ZM5.06333 30.9099C4.67259 30.5152 4.97966 29.9817 3.98741 29.8452C3.07252 29.7196 2.52311 29.8522 2.27998 30.7711C1.56323 33.4781 4.77126 36.7257 6.91048 38.0447C7.44884 38.3766 10.4564 39.8794 11.4778 40.0283C11.6373 40.0515 11.7731 39.915 11.7446 39.7592L11.3405 37.55C11.3255 37.4685 11.2671 37.4003 11.1873 37.3731C9.75935 36.8893 7.52857 35.7486 7.28307 34.1752C7.13625 33.2362 7.43305 32.1715 7.08888 31.2115C7.07467 31.1712 7.04863 31.134 7.01389 31.1084C6.59394 30.7974 5.68221 31.5357 5.06255 30.9099H5.06333ZM55.4565 40.7835C55.4518 40.6393 55.3152 40.5354 55.1716 40.5656C54.6719 40.6695 53.6899 41.0363 53.7531 41.3767C54.1327 44.86 53.1476 48.8682 53.5565 52.2693C53.581 52.4733 53.5636 52.6718 53.7507 52.816C54.3719 53.3185 55.6278 53.1052 55.8157 52.284C55.8204 52.2647 55.822 52.2445 55.8212 52.2243L55.4565 40.7835ZM9.66858 52.6725C10.233 52.0848 9.7483 50.5595 9.71989 49.8592C9.61174 47.2127 9.5178 44.5731 9.34256 41.9304C9.36782 41.5628 8.284 41.0588 7.74565 40.9293C7.59961 40.8944 7.45831 41.0022 7.45594 41.1503L7.28149 52.063C7.32728 53.2828 9.01339 53.3541 9.66779 52.6725H9.66858Z" fill="black"/>
<path d="M10.7419 28.2112L9.5932 27.0027C9.51223 26.9177 9.47094 26.8042 9.4765 26.6876C9.58526 24.2512 8.85729 20.7576 10.2156 18.6725C10.9475 17.5497 12.6265 16.8045 13.318 15.4986C13.4863 15.1804 13.2021 14.8105 12.8409 14.88C11.5651 15.1241 10.3744 14.965 9.38203 14.0537C9.22564 13.9101 8.98748 13.8923 8.81442 14.0159C7.74271 14.7804 6.75515 15.0924 5.51118 14.8893C5.13647 14.8283 4.86974 15.2299 5.06899 15.5449C5.9867 16.9967 7.98405 17.7134 8.45798 19.5258C8.46592 19.5567 8.47068 19.5891 8.47148 19.6216L8.65327 25.6798C8.662 25.9694 8.37939 26.1849 8.0928 26.1069L6.91631 25.7895C6.74483 25.7431 6.61702 25.6018 6.59559 25.4304C6.48842 24.567 6.64401 22.2256 6.58685 21.5838C6.33202 18.7103 4.83957 19.0679 3.40507 17.1419C2.80173 16.3326 2.23492 14.9935 2.09679 14.0043C1.71653 11.2775 1.77448 4.37293 2.03883 1.5558C2.21507 -0.323062 4.46884 -0.131548 4.82846 0.815219C4.84195 0.849969 4.84751 0.887037 4.85068 0.924105C5.06344 3.91422 4.69271 7.04797 4.87847 10.0195C4.91022 10.5323 4.9912 11.5756 5.07932 12.0281C5.26984 13.0012 7.28942 13.2869 7.52361 11.8366C8.03803 8.65732 7.10048 4.41772 7.61411 1.11871C7.61649 1.10172 7.62046 1.08473 7.62443 1.06851C8.03406 -0.486778 10.4561 -0.305302 10.5673 1.35965C10.5673 1.37123 10.5681 1.38282 10.5681 1.3944V11.9787C10.5681 12.0119 10.5712 12.0451 10.5792 12.0768C10.8459 13.1047 12.9607 13.1379 13.0124 11.8374L13.1084 1.2052C13.1084 1.12875 13.1314 1.05461 13.1703 0.988201C14.0991 -0.567091 16.0735 -0.131548 16.2513 1.73959C16.5061 4.43085 16.5657 12.6459 15.9655 15.0692C15.236 18.0176 13.8872 17.6261 12.3606 19.4679C12.1526 19.7189 11.5104 20.6039 11.5104 20.8471V27.9193C11.5104 28.3108 11.0166 28.4993 10.7427 28.212L10.7419 28.2112Z" fill="black"/>
<path d="M56.1087 25.7844L56.5348 18.9054C56.5371 18.87 56.5427 18.8345 56.5538 18.8006C56.972 17.4504 58.2265 16.969 59.0969 16.0216C61.4239 13.4891 61.1063 8.84223 59.9405 5.85447C58.2558 1.53574 54.2442 0.627633 51.9727 5.08115C50.38 8.2037 50.2128 13.3158 52.5945 16.094C53.0887 16.6702 53.6613 16.9313 54.0961 17.3849C56.2766 19.6618 55.3451 23.3435 55.4568 26.2257C55.4616 26.3505 55.4156 26.4714 55.3261 26.5616L53.9757 27.9141C53.6803 28.2099 53.1655 27.9988 53.1774 27.586L53.3809 20.5368C53.3825 20.4844 53.3754 20.4312 53.358 20.3819C52.7576 18.6296 51.0833 17.8633 50.0663 16.1657C47.5588 11.9786 48.4094 3.01614 53.3001 0.691564C61.2869 -3.10494 64.8138 9.7126 62.0908 15.2629C61.2893 16.8966 59.0558 18.3239 58.5766 19.3637C58.0356 20.5375 58.4538 23.0547 58.3445 24.4503C58.2226 26.0001 57.8503 26.0455 56.6567 26.2565C56.3597 26.3089 56.0904 26.0771 56.1087 25.7844Z" fill="black"/>
<path d="M26.8733 31.4776C26.9496 31.3732 27.0884 31.3193 27.2264 31.3392C28.0359 31.4549 28.6947 31.9428 29.4537 32.1615C32.1447 32.9348 34.2156 32.3702 36.6362 31.4251C36.7935 31.3633 36.9788 31.413 37.0727 31.5401C37.1586 31.6566 37.1481 31.81 37.0446 31.9151C34.5943 34.4097 29.4657 34.24 26.883 31.9115C26.7674 31.8071 26.7498 31.6459 26.8396 31.5231L26.8733 31.4769V31.4776Z" fill="black"/>
<path d="M26.8642 27.6836C25.7412 28.7163 23.9272 27.3877 24.4358 26.064C25.3349 23.7238 28.6683 26.0248 26.8642 27.6836Z" fill="black"/>
<path d="M38.4821 27.6836C37.4714 28.7163 35.8388 27.3877 36.2966 26.064C37.1058 23.7238 40.1058 26.0248 38.4821 27.6836Z" fill="black"/>
</svg>
